<?xml version="1.0" encoding="UTF-8"?>
<svg id="Livello_1" data-name="Livello 1" xmlns="http://www.w3.org/2000/svg" viewBox="0 0 627.16 235.37">
  <defs>
    <style>
      .cls-1 {
        fill: #fa440f;
      }
    </style>
  </defs>
  <path class="cls-1" d="m112.17,15.78C55.98,15.78,10.26,61.5,10.26,117.69s45.71,101.91,101.91,101.91,101.91-45.72,101.91-101.91S168.36,15.78,112.17,15.78m35.04,160.37l-22.98-44.88h-10.61v45.88h-32.16v-45.92c-4,5.76-10.65,9.54-18.19,9.54-12.23,0-22.15-9.92-22.15-22.15s9.92-22.15,22.15-22.15c7.54,0,14.19,3.78,18.19,9.53v-49.88h32.16v45.09h5.32l26.21-45.4,26.99,18.5-26.33,37.88,30.44,48.86-29.03,15.11Z"/>
  <polygon class="cls-1" points="260.81 77.26 285.8 77.26 285.8 107.82 311.97 77.26 345.19 77.26 315.69 107.78 346.52 158.11 315.75 158.11 298.7 124.86 285.8 138.38 285.8 158.11 260.81 158.11 260.81 77.26"/>
  <path class="cls-1" d="m393.74,158.11v-80.85h35.85c7.21,0,12.69.73,16.44,2.18,3.75,1.45,6.74,4.02,8.99,7.69,2.24,3.68,3.37,7.74,3.37,12.19,0,5.73-1.86,10.57-5.57,14.5-3.71,3.93-9.45,6.43-17.2,7.5,2.83,1.36,4.98,2.7,6.45,4.03,3.13,2.87,6.09,6.45,8.88,10.75l14.06,22.01h-13.46l-10.7-16.82c-3.13-4.86-5.7-8.57-7.72-11.14-2.02-2.57-3.83-4.37-5.43-5.4-1.6-1.03-3.22-1.75-4.88-2.15-1.21-.26-3.2-.39-5.95-.39h-12.41v35.9h-10.7Zm10.7-45.17h23c4.89,0,8.71-.51,11.47-1.52,2.76-1.01,4.85-2.63,6.29-4.85,1.43-2.22,2.15-4.64,2.15-7.25,0-3.82-1.38-6.97-4.16-9.43-2.78-2.46-7.16-3.69-13.15-3.69h-25.59v26.75Z"/>
  <polygon class="cls-1" points="475.7 158.11 475.7 77.26 534.16 77.26 534.16 86.8 486.4 86.8 486.4 111.57 531.13 111.57 531.13 121.05 486.4 121.05 486.4 148.57 536.04 148.57 536.04 158.11 475.7 158.11"/>
  <path class="cls-1" d="m574.27,158.11l-31.32-80.85h11.58l21.01,58.74c1.69,4.71,3.11,9.12,4.25,13.24,1.25-4.41,2.7-8.83,4.35-13.24l21.84-58.74h10.92l-31.66,80.85h-10.98Z"/>
  <path class="cls-1" d="m376.61,116.89c0,8.08-6.55,14.64-14.64,14.64s-14.64-6.55-14.64-14.64,6.55-14.64,14.64-14.64,14.64,6.55,14.64,14.64"/>
</svg>