<?xml version="1.0" standalone="no"?>
<!DOCTYPE svg PUBLIC "-//W3C//DTD SVG 20010904//EN"
 "http://www.w3.org/TR/2001/REC-SVG-20010904/DTD/svg10.dtd">
<svg version="1.0" xmlns="http://www.w3.org/2000/svg"
 width="500.000000pt" height="500.000000pt" viewBox="0 0 500.000000 500.000000"
 preserveAspectRatio="xMidYMid meet">

<g transform="translate(0.000000,500.000000) scale(0.100000,-0.100000)"
fill="#000000" stroke="none">
<path d="M1360 2860 l0 -30 65 0 65 0 0 -130 0 -130 30 0 29 0 3 128 3 127 63
3 c61 3 62 3 62 32 l0 30 -160 0 -160 0 0 -30z"/>
<path d="M1732 2867 c-20 -21 -22 -34 -22 -138 0 -108 2 -117 23 -137 21 -20
34 -22 140 -22 158 0 157 -1 157 160 0 161 1 160 -158 160 -111 0 -120 -1
-140 -23z m233 -137 l0 -95 -92 -3 -93 -3 0 101 0 101 93 -3 92 -3 0 -95z"/>
<path d="M2060 2730 l0 -160 35 0 35 0 0 65 c0 56 3 65 18 65 10 0 47 -29 82
-65 59 -60 68 -65 107 -65 41 0 43 1 43 30 0 26 -4 30 -28 30 -19 0 -39 11
-62 35 l-34 35 45 0 c63 0 79 20 79 98 0 88 -9 92 -182 92 l-138 0 0 -160z
m260 65 l0 -35 -95 0 -95 0 0 35 0 35 95 0 95 0 0 -35z"/>
<path d="M2420 2860 l0 -30 60 0 60 0 0 -130 0 -130 35 0 35 0 0 130 0 130 65
0 65 0 0 30 0 30 -160 0 -160 0 0 -30z"/>
<path d="M2790 2870 c-18 -18 -20 -33 -20 -140 0 -164 -4 -160 180 -160 l140
0 0 30 0 29 -127 3 -128 3 -3 33 -3 32 130 0 131 0 0 30 0 30 -131 0 -130 0 3
33 3 32 128 3 127 3 0 29 0 30 -140 0 c-127 0 -142 -2 -160 -20z"/>
<path d="M3120 2752 c0 -186 -4 -182 183 -182 l137 0 0 30 0 30 -125 0 -125 0
0 130 0 130 -35 0 -35 0 0 -138z"/>
<path d="M3470 2752 c0 -186 -4 -182 183 -182 l137 0 0 30 0 30 -125 0 -125 0
0 130 0 130 -35 0 -35 0 0 -138z"/>
<path d="M3841 2864 c-18 -23 -21 -41 -21 -134 0 -93 3 -111 21 -134 20 -25
23 -26 138 -26 165 0 161 -4 161 160 0 164 4 160 -161 160 -115 0 -118 -1
-138 -26z m239 -134 l0 -100 -95 0 -95 0 0 100 0 100 95 0 95 0 0 -100z"/>
<path d="M1382 2367 c-30 -32 -31 -118 -2 -147 18 -18 33 -20 131 -20 l110 0
-3 -32 -3 -33 -127 -3 -128 -3 0 -29 0 -30 140 0 c169 0 180 6 180 95 0 85
-15 95 -145 95 l-105 0 0 35 0 35 125 0 125 0 0 30 0 30 -138 0 c-132 0 -140
-1 -160 -23z"/>
<path d="M1710 2360 l0 -30 65 0 65 0 0 -130 0 -130 30 0 29 0 3 128 3 127 63
3 c61 3 62 3 62 32 l0 30 -160 0 -160 0 0 -30z"/>
<path d="M2081 2364 c-18 -23 -21 -41 -21 -134 0 -93 3 -111 21 -134 20 -26
21 -26 160 -26 l139 0 0 30 0 30 -125 0 -125 0 0 35 0 35 125 0 125 0 0 30 0
30 -125 0 -125 0 0 35 0 35 125 0 125 0 0 30 0 30 -139 0 c-139 0 -140 0 -160
-26z"/>
</g>
</svg>
